<?xml version="1.0" encoding="utf-8"?>
<!-- Generator: Adobe Illustrator 19.2.1, SVG Export Plug-In . SVG Version: 6.00 Build 0)  -->
<svg version="1.1" id="Layer_1" xmlns="http://www.w3.org/2000/svg" xmlns:xlink="http://www.w3.org/1999/xlink" x="0px" y="0px"
	 viewBox="0 0 120 120" style="enable-background:new 0 0 120 120;" xml:space="preserve">
<style type="text/css">
	.st0{fill:#010101;}
</style>
<g>
	<g>
		<g>
			<path class="st0" d="M78.2,89c-0.6,0-1-0.5-1-1V33.1H42.9V88c0,0.6-0.5,1-1,1s-1-0.5-1-1V33.1c0-1.1,0.9-2.1,2.1-2.1h34.4
				c1.1,0,2.1,0.9,2.1,2.1V88C79.2,88.5,78.8,89,78.2,89z"/>
		</g>
	</g>
	<g>
		<g>
			<path class="st0" d="M88.6,89H78.2c-0.6,0-1-0.5-1-1s0.5-1,1-1h10.4c0.6,0,1,0.5,1,1S89.2,89,88.6,89z"/>
		</g>
	</g>
	<g>
		<g>
			<path class="st0" d="M41.8,89H31.4c-0.6,0-1-0.5-1-1s0.5-1,1-1h10.4c0.6,0,1,0.5,1,1S42.4,89,41.8,89z"/>
		</g>
	</g>
	<g>
		<g>
			<g>
				<path class="st0" d="M42.9,88.8L42.9,88.8c-1.1,0-2-0.8-2-1.9V33.1c0-1,0.8-1.9,1.9-1.9H43l28.1,7c1,0.1,1.8,0.9,1.8,1.9V80
					c0,1-0.8,1.8-1.8,1.9L42.9,88.8z M42.8,32.9c-0.1,0-0.1,0.1-0.1,0.2v53.8c0,0.1,0,0.1,0.1,0.2l28.1-7H71c0.1,0,0.2-0.1,0.2-0.2
					V40.1c0-0.1-0.1-0.2-0.2-0.2h-0.2L42.8,32.9z"/>
			</g>
		</g>
		<g>
			<g>
				<circle class="st0" cx="68.2" cy="62.7" r="1.6"/>
			</g>
		</g>
	</g>
</g>
</svg>
