<?xml version="1.0" encoding="utf-8"?>
<!-- Generator: Adobe Illustrator 19.2.1, SVG Export Plug-In . SVG Version: 6.00 Build 0)  -->
<svg version="1.1" id="Layer_1" xmlns="http://www.w3.org/2000/svg" xmlns:xlink="http://www.w3.org/1999/xlink" x="0px" y="0px"
	 viewBox="0 0 120 120" style="enable-background:new 0 0 120 120;" xml:space="preserve">
<style type="text/css">
	.st0{fill:#010101;}
</style>
<g>
	<g>
		<g>
			<path class="st0" d="M77.2,88.6H42.8c-1.1,0-2.1-0.9-2.1-2.1v-53c0-1.1,0.9-2.1,2.1-2.1h34.4c1.1,0,2.1,0.9,2.1,2.1v53.1
				C79.2,87.7,78.3,88.6,77.2,88.6z M77.2,86.5v1V86.5L77.2,86.5L77.2,86.5z M77.2,33.5H42.9v53.1h34.3V33.5z"/>
		</g>
	</g>
	<g>
		<g>
			<path class="st0" d="M88.6,88.6H78.2c-0.6,0-1-0.5-1-1s0.5-1,1-1h10.4c0.6,0,1,0.5,1,1S89.2,88.6,88.6,88.6z"/>
		</g>
	</g>
	<g>
		<g>
			<path class="st0" d="M41.8,88.6H31.4c-0.6,0-1-0.5-1-1s0.5-1,1-1h10.4c0.6,0,1,0.5,1,1S42.4,88.6,41.8,88.6z"/>
		</g>
	</g>
	<g>
		<g>
			<circle class="st0" cx="72" cy="60.7" r="2"/>
		</g>
	</g>
</g>
</svg>
